<?xml version="1.0" ?><!DOCTYPE svg  PUBLIC '-//W3C//DTD SVG 1.1//EN'  'http://www.w3.org/Graphics/SVG/1.1/DTD/svg11.dtd'><svg enable-background="new 0 0 64 64" height="64px" id="Layer_1" version="1.1" viewBox="0 0 64 64" width="64px" xml:space="preserve" xmlns="http://www.w3.org/2000/svg" xmlns:xlink="http://www.w3.org/1999/xlink"><g><defs><rect height="56.75" id="SVGID_1_" width="56.75" x="3.625" y="3.625"/></defs><clipPath id="SVGID_2_"><use overflow="visible" xlink:href="#SVGID_1_"/></clipPath><g clip-path="url(#SVGID_2_)"><defs><rect height="56.75" id="SVGID_3_" width="56.75" x="3.625" y="3.625"/></defs><clipPath id="SVGID_4_"><use overflow="visible" xlink:href="#SVGID_3_"/></clipPath><path clip-path="url(#SVGID_4_)" d="M58.146,32c0,14.44-11.706,26.146-26.146,26.146S5.854,46.44,5.854,32    C5.854,17.56,17.56,5.853,32,5.853S58.146,17.56,58.146,32" fill="#E65A4D"/><path clip-path="url(#SVGID_4_)" d="    M52.084,12.67c4.824,5.011,7.791,11.824,7.791,19.33c0,15.395-12.48,27.875-27.875,27.875S4.125,47.395,4.125,32    C4.125,16.605,16.605,4.125,32,4.125c3.404,0,6.668,0.61,9.685,1.728" fill="none" stroke="#E65A4D" stroke-linecap="round" stroke-linejoin="round" stroke-miterlimit="10"/><path clip-path="url(#SVGID_4_)" d="    M45.501,7.607c1.157,0.642,2.264,1.364,3.313,2.158" fill="none" stroke="#E65A4D" stroke-linecap="round" stroke-linejoin="round" stroke-miterlimit="10"/><g clip-path="url(#SVGID_4_)" opacity="0.06"><g><defs><rect height="45.5" id="SVGID_5_" width="45.5" x="9.25" y="9.25"/></defs><clipPath id="SVGID_6_"><use overflow="visible" xlink:href="#SVGID_5_"/></clipPath><path clip-path="url(#SVGID_6_)" d="M54.75,32c0,12.564-10.186,22.75-22.75,22.75S9.25,44.564,9.25,32      C9.25,19.436,19.436,9.25,32,9.25S54.75,19.436,54.75,32"/></g></g><g clip-path="url(#SVGID_4_)" opacity="0.04"><g><defs><rect height="34.917" id="SVGID_7_" width="34.917" x="14.541" y="14.542"/></defs><clipPath id="SVGID_8_"><use overflow="visible" xlink:href="#SVGID_7_"/></clipPath><path clip-path="url(#SVGID_8_)" d="M49.458,32c0,9.642-7.816,17.458-17.458,17.458c-9.643,0-17.459-7.816-17.459-17.458      c0-9.642,7.816-17.458,17.459-17.458C41.642,14.542,49.458,22.358,49.458,32"/></g></g></g></g><g><g opacity="0.2"><path clip-rule="evenodd" d="M32.52,22.813c3.695,0,7.39-0.002,11.085,0.001c1.146,0,2.035,0.723,2.244,1.817    c0.028,0.154,0.03,0.315,0.03,0.472c0.004,4.924,0.004,9.846,0.003,14.771c0,0.178,0,0.357-0.025,0.533    c-0.156,1.086-0.728,1.588-1.972,1.713c-0.414,0.041-0.831,0.063-1.246,0.063c-7.053,0.005-14.105,0.004-21.159,0.003    c-1.445,0-2.361-0.91-2.362-2.351c0-4.884,0-9.767,0.001-14.65c0-1.457,0.916-2.372,2.375-2.373    C25.169,22.813,28.844,22.813,32.52,22.813z M32.464,30.42c3.189-2.35,6.353-4.679,9.573-7.052c-6.396,0-12.696,0-19.084,0    C26.162,25.747,29.305,28.079,32.464,30.42z M31.998,35.297c-3.025,2.104-6.037,4.198-9.098,6.326c6.402,0,12.736,0,19.133,0    c-0.95-0.66-1.843-1.281-2.737-1.903c-2.049-1.425-4.097-2.85-6.15-4.271c-0.089-0.062-0.256-0.117-0.329-0.076    C32.518,35.543,32.254,35.535,31.998,35.297z M33.406,34.97c2.971,2.066,5.912,4.111,8.883,6.176c0-4.124,0-8.181,0-12.292    C39.316,30.901,36.378,32.924,33.406,34.97z M31.526,34.97c-2.974-2.047-5.911-4.07-8.872-6.109c0,4.111,0,8.176,0,12.28    C25.62,39.077,28.551,37.04,31.526,34.97z" fill-rule="evenodd"/></g><g><g><path clip-rule="evenodd" d="M32.02,22.313c3.695,0,7.39-0.002,11.085,0.001     c1.146,0,2.035,0.723,2.244,1.817c0.028,0.154,0.03,0.315,0.03,0.472c0.004,4.924,0.004,9.846,0.003,14.771     c0,0.178,0,0.357-0.025,0.533c-0.156,1.086-0.728,1.588-1.972,1.713c-0.414,0.041-0.831,0.063-1.246,0.063     c-7.053,0.005-14.105,0.004-21.159,0.003c-1.445,0-2.361-0.91-2.362-2.351c0-4.884,0-9.767,0.001-14.65     c0-1.457,0.916-2.372,2.375-2.373C24.669,22.313,28.344,22.313,32.02,22.313z M31.964,29.92c3.189-2.35,6.353-4.679,9.573-7.052     c-6.396,0-12.696,0-19.084,0C25.662,25.247,28.805,27.579,31.964,29.92z M31.498,34.797c-3.025,2.104-6.037,4.198-9.098,6.326     c6.402,0,12.736,0,19.133,0c-0.95-0.66-1.843-1.281-2.737-1.903c-2.049-1.425-4.097-2.85-6.15-4.271     c-0.089-0.062-0.256-0.117-0.329-0.076C32.018,35.043,31.754,35.035,31.498,34.797z M32.906,34.47     c2.971,2.066,5.913,4.111,8.883,6.176c0-4.124,0-8.181,0-12.292C38.816,30.401,35.878,32.424,32.906,34.47z M31.026,34.47     c-2.974-2.047-5.911-4.07-8.872-6.109c0,4.111,0,8.176,0,12.28C25.12,38.577,28.051,36.54,31.026,34.47z" fill="#FFFFFF" fill-rule="evenodd"/></g></g></g></svg>